<svg xmlns="http://www.w3.org/2000/svg" viewBox="0 0 192 192" width="192" height="192" role="img" aria-label="玄鑑">
  <rect width="192" height="192" fill="#0a0a0a"/>
  <g fill="none" stroke="#fff" stroke-width="7.3">
    <circle cx="96" cy="96" r="73"/>
  </g>
  <g stroke="#fff" stroke-width="5" stroke-linecap="butt">
    <g id="t"><line x1="96" y1="16.5" x2="96" y2="27.5"/></g>
    <use href="#t" transform="rotate(30 96 96)"/><use href="#t" transform="rotate(60 96 96)"/>
    <use href="#t" transform="rotate(90 96 96)"/><use href="#t" transform="rotate(120 96 96)"/>
    <use href="#t" transform="rotate(150 96 96)"/><use href="#t" transform="rotate(180 96 96)"/>
    <use href="#t" transform="rotate(210 96 96)"/><use href="#t" transform="rotate(240 96 96)"/>
    <use href="#t" transform="rotate(270 96 96)"/><use href="#t" transform="rotate(300 96 96)"/>
    <use href="#t" transform="rotate(330 96 96)"/>
  </g>
  <path fill="#fff" d="M96 51 C100 78 114 92 141 96 C114 100 100 114 96 141 C92 114 78 100 51 96 C78 92 92 78 96 51 Z"/>
  <g stroke="#fff" stroke-width="4.4"><line x1="14" y1="96" x2="30" y2="96"/><line x1="162" y1="96" x2="178" y2="96"/></g>
</svg>
